<svg xmlns="http://www.w3.org/2000/svg" viewBox="0 0 1200 720">
<defs><linearGradient id="g" x1="0" y1="0" x2="1" y2="1"><stop offset="0" stop-color="#081326"/><stop offset="1" stop-color="#10264a"/></linearGradient><filter id="glow"><feGaussianBlur stdDeviation="5" result="b"/><feMerge><feMergeNode in="b"/><feMergeNode in="SourceGraphic"/></feMerge></filter></defs>
<rect width="1200" height="720" rx="32" fill="url(#g)"/><path d="M0 590 Q300 470 600 590 T1200 560 V720 H0Z" fill="#06101f" opacity=".7"/>
<text x="70" y="92" fill="white" font-family="Arial,sans-serif" font-size="34" font-weight="700">MICROCHIP</text>
<text x="70" y="128" fill="#7be7ff" font-family="Arial,sans-serif" font-size="17" letter-spacing="3">ELECTRONIC COMPONENTS</text>
<rect x="330" y="205" width="540" height="350" rx="28" fill="#101d2b" stroke="{ece}" stroke-width="5"/><rect x="470" y="295" width="260" height="170" rx="16" fill="#07131f" stroke="{ece}" stroke-width="4"/><text x="545" y="390" fill="white" font-family="Arial" font-size="36" font-weight="700">ECE</text><g stroke="{ece}" stroke-width="7"><path d="M330 240h-70"/><path d="M330 295h-70"/><path d="M330 350h-70"/><path d="M330 405h-70"/><path d="M330 460h-70"/><path d="M330 515h-70"/><path d="M870 240h70"/><path d="M870 295h70"/><path d="M870 350h70"/><path d="M870 405h70"/><path d="M870 460h70"/><path d="M870 515h70"/></g><circle cx="600" cy="250" r="12" fill="{ece}" filter="url(#glow)"/>
<rect x="70" y="650" width="1060" height="2" fill="#7be7ff" opacity=".35"/>
</svg>